<svg xmlns="http://www.w3.org/2000/svg" xmlns:xlink="http://www.w3.org/1999/xlink" version="1.1" x="0px" y="0px" viewBox="0 0 20 25" xml:space="preserve">
  <g transform="translate(-90 -1160)">
    <g xmlns="http://www.w3.org/2000/svg" xmlns:xlink="http://www.w3.org/1999/xlink">
      <path d="M101,1176.92v2.021c1.735-0.192,3.319-0.878,4.613-1.913l-1.43-1.43C103.269,1176.284,102.183,1176.75,101,1176.92z" fill="#3498db"/>
      <path d="M93.08,1171h-2.021c0.191,1.735,0.879,3.319,1.914,4.614l1.43-1.43C93.716,1173.269,93.25,1172.183,93.08,1171z" fill="#3498db"/>
      <path d="M104.184,1164.401l1.43-1.43c-1.294-1.035-2.878-1.721-4.613-1.913v2.021    C102.184,1163.25,103.27,1163.716,104.184,1164.401z" fill="#3498db"/>
      <path d="M106.92,1169h2.021c-0.191-1.735-0.879-3.319-1.914-4.614l-1.43,1.43C106.284,1166.731,106.75,1167.817,106.92,1169z" fill="#3498db"/>
      <path d="M95.816,1175.599l-1.43,1.43c1.294,1.035,2.878,1.721,4.613,1.913v-2.021C97.816,1176.75,96.73,1176.284,95.816,1175.599z" fill="#3498db"/>
      <path d="M94.401,1165.815l-1.429-1.43c-1.036,1.295-1.723,2.879-1.914,4.614h2.021    C93.25,1167.817,93.716,1166.731,94.401,1165.815z" fill="#3498db"/>
      <path d="M99,1163.08v-2.021c-1.735,0.192-3.319,0.878-4.613,1.913l1.43,1.43C96.731,1163.716,97.817,1163.25,99,1163.08z" fill="#3498db"/>
      <path d="M106.92,1171c-0.17,1.183-0.636,2.269-1.322,3.185l1.43,1.43c1.036-1.295,1.723-2.879,1.914-4.614H106.92z" fill="#3498db"/>
    </g>
  </g>
  <text x="0" y="35" fill="##3498db" font-size="5px" font-weight="bold" font-family="'Helvetica Neue', Helvetica, Arial-Unicode, Arial, Sans-serif">Created by Hea Poh Lin</text>
  <text x="0" y="40" fill="##3498db" font-size="5px" font-weight="bold" font-family="'Helvetica Neue', Helvetica, Arial-Unicode, Arial, Sans-serif">from the Noun Project</text>
</svg>
